<?xml version="1.0" encoding="UTF-8" standalone="no"?>
<svg width="80px" height="80px" viewBox="0 0 80 80" version="1.1" xmlns="http://www.w3.org/2000/svg" xmlns:xlink="http://www.w3.org/1999/xlink">
    <!-- Generator: sketchtool 40.2 (33826) - http://www.bohemiancoding.com/sketch -->
    <title>D50580E9-D2A0-494D-8109-49BF9BFBC059</title>
    <desc>Created with sketchtool.</desc>
    <defs></defs>
    <g id="Main-Page" stroke="none" stroke-width="1" fill="none" fill-rule="evenodd">
        <g id="Agent-Success-order" transform="translate(-640.000000, -180.000000)" fill="#00C853">
            <g id="Group" transform="translate(286.000000, 180.000000)">
                <g id="Group-2">
                    <g id="Icons-/-Success" transform="translate(354.000000, 0.000000)">
                        <g id="Success">
                            <path d="M40,77 L40,77 C60.4345357,77 77,60.4345357 77,40 C77,19.5654643 60.4345357,3 40,3 C19.5654643,3 3,19.5654643 3,40 C3,60.4345357 19.5654643,77 40,77 L40,77 Z M40,80 C17.90861,80 0,62.09139 0,40 C0,17.90861 17.90861,0 40,0 C62.09139,0 80,17.90861 80,40 C80,62.09139 62.09139,80 40,80 Z M34.9008098,55.0206766 C35.5116743,55.6785308 36.559714,55.6560941 37.1418648,54.9726997 L60.1418648,27.9726997 C60.679072,27.3420651 60.6033342,26.3953424 59.9726997,25.8581352 C59.3420651,25.320928 58.3953424,25.3966658 57.8581352,26.0273003 L35.9554339,51.7475857 L24.0991902,38.9793234 C23.5354861,38.3722573 22.5863894,38.3371056 21.9793234,38.9008098 C21.3722573,39.4645139 21.3371056,40.4136106 21.9008098,41.0206766 L34.9008098,55.0206766 Z"></path>
                        </g>
                    </g>
                </g>
            </g>
        </g>
    </g>
</svg>